<svg width="67" height="67" viewBox="0 0 67 67" fill="none" xmlns="http://www.w3.org/2000/svg">
<circle cx="33.5" cy="33.5" r="33.5" fill="white"/>
<path fill-rule="evenodd" clip-rule="evenodd" d="M16.1833 53.5923H50.1325C50.6324 53.5923 51.0405 54.0003 51.0405 54.5002V56.092C51.0405 56.5919 50.6324 56.9999 50.1325 56.9999H16.1833C15.6834 56.9999 15.2754 56.5919 15.2754 56.092L15.2776 54.5025C15.2776 54.0025 15.6857 53.5923 16.1833 53.5923ZM17.3697 37.9165H48.9473C49.4921 37.9165 49.9607 38.1317 50.3194 38.542C50.6758 38.9545 50.8216 39.4477 50.7453 39.988L49.0482 51.8747H17.2691L15.572 39.988C15.4958 39.4477 15.6415 38.9522 15.998 38.542C16.3567 38.1295 16.8249 37.9165 17.3697 37.9165ZM20.9029 21.2008H23.0798C22.8108 22.1312 22.6651 23.1131 22.6651 24.1287C22.6651 24.9471 22.7592 25.7429 22.9363 26.5074L20.9029 26.5052C19.9478 26.5052 19.1677 25.725 19.1677 24.7699V22.9361C19.1677 21.981 19.9479 21.2008 20.9029 21.2008ZM45.8333 26.4536C45.8109 28.3009 44.3021 29.7963 42.4547 29.7963L39.4327 29.7873C39.899 29.2716 40.3003 28.6977 40.6298 28.0789H42.4547C43.3381 28.0789 44.0734 27.3884 44.1205 26.5051H43.3828C43.56 25.7406 43.6541 24.9447 43.6541 24.1264C43.6541 23.1109 43.5084 22.1289 43.2394 21.1985H45.4163C46.3714 21.1985 47.1515 21.9787 47.1515 22.9337V24.7676C47.1515 25.5814 46.5888 26.2675 45.8333 26.4536ZM26.1986 11.8855C28.306 10.6592 30.716 10 33.1598 10C35.6034 10 38.0135 10.6591 40.121 11.8855C40.2555 11.9639 40.3452 12.0828 40.381 12.233C40.4169 12.3854 40.3945 12.5289 40.3093 12.6612L38.9731 14.7573C38.8139 15.0062 38.4889 15.0869 38.231 14.9412C36.6796 14.0578 34.9556 13.605 33.1576 13.605C31.3596 13.605 29.6356 14.0579 28.0842 14.9412C27.8286 15.0869 27.5013 15.0062 27.3421 14.7573L26.0059 12.6612C25.9207 12.5289 25.8983 12.3854 25.9342 12.233C25.9745 12.0805 26.0618 11.9639 26.1986 11.8855ZM41.6924 36.1989C39.2353 34.5847 36.3028 33.6454 33.1598 33.6454C30.0166 33.6454 27.0841 34.587 24.6271 36.1989H41.6924ZM33.1598 15.6855C28.4966 15.6855 24.7167 19.4653 24.7167 24.1286C24.7167 28.7918 28.4965 32.5717 33.1598 32.5717C35.6438 32.5717 37.8768 31.4978 39.4236 29.7894L35.9756 29.7849C35.6953 30.2221 35.2043 30.5135 34.6506 30.5135H31.6733C30.808 30.5135 30.0995 29.8051 30.0995 28.9397C30.0995 28.0743 30.808 27.3659 31.6733 27.3659H34.6484C35.1954 27.3659 35.6774 27.6484 35.9599 28.0743L40.6209 28.0811C41.2463 26.9018 41.6028 25.5567 41.6028 24.1286C41.6028 19.4654 37.823 15.6855 33.1598 15.6855ZM41.5736 13.8763C41.188 14.4838 40.8046 15.0981 40.4123 15.699C41.5758 16.7504 42.5062 18.0417 43.1273 19.4833H45.4208C44.6585 17.3064 43.3245 15.3716 41.5736 13.8763ZM25.9093 15.699C25.517 15.0959 25.1336 14.4816 24.748 13.8763C22.9971 15.3716 21.6631 17.3087 20.9009 19.4833H23.1944C23.8131 18.0417 24.7435 16.7482 25.9093 15.699ZM33.1598 43.2165C31.7586 43.2165 30.622 44.3532 30.622 45.7544C30.622 47.1556 31.7586 48.2923 33.1598 48.2923C34.561 48.2923 35.6977 47.1556 35.6977 45.7544C35.6977 44.3532 34.561 43.2165 33.1598 43.2165Z" fill="#00BEB4"/>
</svg>
