<svg width="67" height="67" viewBox="0 0 67 67" fill="none" xmlns="http://www.w3.org/2000/svg">
<circle cx="33.5" cy="33.5" r="33.5" fill="white"/>
<path d="M48.6239 43.9084C48.2408 43.9139 47.8743 44.0651 47.5989 44.3314L43.6114 48.1855L39.624 44.3314C39.3485 44.0651 38.982 43.9139 38.5989 43.9084C35.4285 43.8628 30.315 53.5623 33.264 55.4468H53.9589C56.7439 53.4727 51.808 43.8626 48.6239 43.9084Z" fill="#00BEB4"/>
<path d="M50.5412 41.6525H48.1788C47.6504 42.3608 46.964 42.9359 46.1741 43.3321C45.3843 43.7284 44.5128 43.9347 43.6291 43.9347C42.7455 43.9347 41.874 43.7284 41.0841 43.3321C40.2943 42.9359 39.6078 42.3608 39.0794 41.6525H36.6822C36.6822 41.6525 32.9386 31.7 39.64 28.0171C40.8574 27.3498 42.2234 27 43.6117 27C45 27 46.366 27.3498 47.5834 28.0171C54.2848 31.7 50.5412 41.6525 50.5412 41.6525Z" fill="#00BEB4"/>
<path d="M26.1969 13.476C24.9004 12.7653 23.4458 12.3927 21.9673 12.3927C20.4889 12.3927 19.0342 12.7653 17.7378 13.476C10.602 17.3972 14.5883 27.9953 14.5883 27.9953H17.1413C17.7039 28.7495 18.4349 29.362 19.2759 29.7839C20.117 30.2058 21.045 30.4256 21.9859 30.4256C22.9269 30.4256 23.8549 30.2058 24.696 29.7839C25.537 29.362 26.268 28.7495 26.8306 27.9953H29.3464C29.3464 27.9953 33.3326 17.3972 26.1969 13.476ZM21.986 29.8143C20.7554 29.8186 19.56 29.4038 18.5964 28.6383C17.6329 27.8728 16.9586 26.8021 16.6846 25.6024L15.704 21.3776C17.0479 21.146 18.3271 20.631 19.4566 19.8667C18.8351 20.6018 18.0485 21.1794 17.1611 21.5525C20.8394 21.793 21.9673 17.586 21.9673 17.586C23.5504 19.5587 25.783 20.9046 28.2667 21.3834L27.2873 25.6024C27.0133 26.8021 26.339 27.8728 25.3755 28.6383C24.412 29.4038 23.2166 29.8186 21.986 29.8143Z" fill="#00BEB4"/>
<path d="M27.766 30.4594C27.8984 32.1344 27.7765 33.8197 27.4046 35.4582C27.7122 35.6484 27.9405 35.9436 28.0471 36.2892L28.5564 37.9091C28.6272 38.1348 28.6441 38.3739 28.6056 38.6073C28.5672 38.8407 28.4745 39.0619 28.3351 39.2529C28.1956 39.444 28.0133 39.5997 27.8027 39.7075C27.5922 39.8152 27.3592 39.8721 27.1227 39.8735C27.01 39.8734 26.8976 39.8609 26.7876 39.8363C26.7322 39.8241 26.6798 39.8011 26.6333 39.7686C26.5869 39.7361 26.5473 39.6947 26.5168 39.6469C26.4864 39.5991 26.4656 39.5457 26.4558 39.4899C26.446 39.434 26.4473 39.3768 26.4596 39.3215C26.4719 39.2661 26.495 39.2137 26.5276 39.1673C26.5601 39.1209 26.6016 39.0814 26.6494 39.051C26.6973 39.0206 26.7507 38.9999 26.8065 38.9902C26.8624 38.9805 26.9196 38.9818 26.9749 38.9942C27.0859 39.0189 27.2014 39.014 27.3099 38.9799C27.4183 38.9458 27.5159 38.8837 27.5927 38.8C27.6696 38.7162 27.7231 38.6137 27.7478 38.5028C27.7725 38.3918 27.7676 38.2763 27.7335 38.1678L27.2242 36.548C27.1901 36.4395 27.1281 36.3419 27.0443 36.265C26.9606 36.1882 26.8581 36.1347 26.7471 36.11C26.6361 36.0853 26.5206 36.0902 26.4122 36.1243C26.3037 36.1584 26.2061 36.2205 26.1293 36.3042L24.981 37.5552C24.9041 37.639 24.8507 37.7415 24.826 37.8524C24.8013 37.9634 24.8062 38.0789 24.8403 38.1873C24.8744 38.2958 24.9365 38.3933 25.0202 38.4702C25.1039 38.5471 25.2064 38.6006 25.3174 38.6253C25.3728 38.6375 25.4252 38.6606 25.4716 38.6931C25.5181 38.7256 25.5577 38.7669 25.5881 38.8147C25.6186 38.8626 25.6393 38.9159 25.6492 38.9718C25.659 39.0276 25.6577 39.0848 25.6454 39.1402C25.6331 39.1955 25.61 39.2479 25.5774 39.2943C25.5448 39.3407 25.5034 39.3802 25.4556 39.4106C25.4077 39.441 25.3543 39.4617 25.2985 39.4714C25.2426 39.4812 25.1854 39.4798 25.13 39.4674C24.8713 39.4098 24.6322 39.2851 24.4369 39.1058C24.2416 38.9266 24.0969 38.699 24.0174 38.4461C23.9378 38.1932 23.9263 37.9238 23.9839 37.665C24.0415 37.4063 24.1662 37.1672 24.3455 36.9719L25.4937 35.7209C25.6306 35.5701 25.7968 35.449 25.9822 35.3649C26.1676 35.2807 26.3683 35.2354 26.5719 35.2318C26.9193 33.6656 27.0293 32.0562 26.8983 30.4574C26.6409 30.5283 26.4054 30.6627 26.2133 30.8483L21.9672 34.9524L17.7212 30.8483C17.5262 30.66 17.2867 30.5242 17.0249 30.4537C16.7632 30.3831 16.4879 30.3801 16.2247 30.445C16.1238 31.8492 16.0974 34.4321 16.9703 36.5255C17.3259 36.4574 17.6942 36.5196 18.0077 36.7007C18.3213 36.8817 18.5592 37.1695 18.6781 37.5115C18.7969 37.8535 18.7888 38.2269 18.6551 38.5634C18.5214 38.8999 18.2712 39.177 17.95 39.3442C17.6289 39.5114 17.2583 39.5575 16.906 39.474C16.5537 39.3905 16.2431 39.1831 16.0311 38.8896C15.8192 38.596 15.7198 38.2361 15.7514 37.8754C15.7829 37.5147 15.9431 37.1774 16.2028 36.9251C15.4916 35.0352 15.1921 33.0153 15.3244 31.0004C13.5271 32.6403 9.00002 40.5 10.9487 42.6847H32.9859C34 40.5 30.5746 31.2516 27.766 30.4594Z" fill="#00BEB4"/>
<path d="M17.2503 38.645C17.6049 38.645 17.8923 38.3576 17.8923 38.003C17.8923 37.6484 17.6049 37.361 17.2503 37.361C16.8957 37.361 16.6083 37.6484 16.6083 38.003C16.6083 38.3576 16.8957 38.645 17.2503 38.645Z" fill="#00BEB4"/>
<path d="M42.7925 18.6715C43.151 18.0995 43.3717 17.4521 43.4372 16.7802C43.5028 16.1084 43.4113 15.4305 43.17 14.8C42.9288 14.1695 42.5443 13.6038 42.047 13.1473C41.5497 12.6908 40.9532 12.3561 40.3044 12.1696C39.6556 11.9831 38.9724 11.9499 38.3086 12.0726C37.6448 12.1953 37.0186 12.4705 36.4793 12.8766C35.9401 13.2827 35.5026 13.8085 35.2013 14.4126C34.9 15.0167 34.7432 15.6825 34.7433 16.3576C34.7433 16.4255 34.7453 16.4929 34.7484 16.56L33.4699 18.2973C33.4508 18.3232 33.4393 18.3539 33.4366 18.386C33.434 18.418 33.4402 18.4502 33.4548 18.4789C33.4693 18.5076 33.4915 18.5317 33.5189 18.5486C33.5463 18.5654 33.5778 18.5743 33.61 18.5743H35.3495C35.6429 19.0707 36.0319 19.5039 36.4939 19.8489C36.9559 20.1939 37.4818 20.4437 38.0411 20.584C38.6003 20.7243 39.1819 20.7523 39.752 20.6662C40.3221 20.5802 40.8695 20.3818 41.3625 20.0827L43.2362 20.595C43.2673 20.6035 43.3001 20.6032 43.3309 20.5942C43.3618 20.5852 43.3896 20.5678 43.4111 20.5439C43.4327 20.52 43.4472 20.4907 43.4531 20.459C43.459 20.4274 43.456 20.3948 43.4444 20.3648L42.7925 18.6715ZM36.7297 17.0102C36.6006 17.0102 36.4744 16.9719 36.3671 16.9002C36.2597 16.8285 36.1761 16.7266 36.1267 16.6073C36.0773 16.4881 36.0644 16.3568 36.0895 16.2302C36.1147 16.1036 36.1769 15.9873 36.2682 15.896C36.3594 15.8048 36.4757 15.7426 36.6023 15.7174C36.729 15.6922 36.8602 15.7052 36.9794 15.7546C37.0987 15.804 37.2006 15.8876 37.2724 15.9949C37.3441 16.1023 37.3823 16.2285 37.3823 16.3576C37.3823 16.4433 37.3655 16.5281 37.3327 16.6073C37.2999 16.6865 37.2518 16.7585 37.1912 16.8191C37.1306 16.8797 37.0586 16.9277 36.9794 16.9605C36.9002 16.9933 36.8154 17.0102 36.7297 17.0102ZM39.1007 17.0102C38.9716 17.0102 38.8455 16.9719 38.7381 16.9002C38.6308 16.8285 38.5471 16.7266 38.4977 16.6073C38.4483 16.4881 38.4354 16.3568 38.4606 16.2302C38.4858 16.1036 38.5479 15.9873 38.6392 15.896C38.7305 15.8048 38.8468 15.7426 38.9734 15.7174C39.1 15.6922 39.2312 15.7052 39.3505 15.7546C39.4698 15.804 39.5717 15.8876 39.6434 15.9949C39.7151 16.1023 39.7534 16.2285 39.7534 16.3576C39.7534 16.5306 39.6846 16.6967 39.5622 16.8191C39.4398 16.9415 39.2738 17.0102 39.1007 17.0102ZM41.4718 17.0102C41.3427 17.0102 41.2165 16.9719 41.1092 16.9002C41.0019 16.8285 40.9182 16.7266 40.8688 16.6073C40.8194 16.4881 40.8065 16.3568 40.8317 16.2302C40.8568 16.1036 40.919 15.9873 41.0103 15.896C41.1016 15.8048 41.2179 15.7426 41.3445 15.7174C41.4711 15.6922 41.6023 15.7052 41.7216 15.7546C41.8408 15.804 41.9428 15.8876 42.0145 15.9949C42.0862 16.1023 42.1245 16.2285 42.1245 16.3576C42.1245 16.5306 42.0557 16.6967 41.9333 16.8191C41.8109 16.9415 41.6449 17.0102 41.4718 17.0102Z" fill="#00BEB4"/>
</svg>
