<svg width="67" height="67" viewBox="0 0 67 67" fill="none" xmlns="http://www.w3.org/2000/svg">
<circle cx="33.5" cy="33.5" r="33.5" fill="white"/>
<path d="M35.9141 29.7439C36.9886 30.8185 37.6545 32.304 37.6545 33.9435C37.6545 35.583 36.9886 37.0686 35.9141 38.1431C34.8396 39.2176 33.354 39.8835 31.7145 39.8835C30.075 39.8835 28.5894 39.2176 27.5149 38.1431C26.4404 37.0686 25.7746 35.583 25.7746 33.9435C25.7746 32.304 26.4404 30.8185 27.5149 29.7439C28.5894 28.6694 30.075 28.0036 31.7145 28.0036C33.354 28.0036 34.8396 28.6694 35.9141 29.7439ZM59.0232 33.9435C59.0232 35.0861 58.0925 36.0168 56.9499 36.0168C55.9511 36.0168 55.1137 35.3055 54.9195 34.3622H42.7396C42.6891 35.7268 42.4016 37.0308 41.8997 38.2238H51.3379C51.57 38.2238 51.7566 38.4105 51.7566 38.6425V42.0249C52.6999 42.2192 53.4112 43.0566 53.4112 44.0554C53.4112 45.1979 52.4805 46.1286 51.3379 46.1286C50.1954 46.1286 49.2646 45.1979 49.2646 44.0554C49.2646 43.0565 49.9759 42.2191 50.9193 42.0249V39.0638H41.4959C40.9737 40.0576 40.3104 40.9681 39.5234 41.7551C38.7617 42.5168 37.8864 43.1676 36.928 43.6821H46.2074C46.4395 43.6821 46.6261 43.8688 46.6261 44.1008V47.4832C47.5694 47.6774 48.2807 48.5149 48.2807 49.5136C48.2807 50.6562 47.35 51.5869 46.2075 51.5869C45.0649 51.5869 44.1342 50.6562 44.1342 49.5136C44.1342 48.5148 44.8455 47.6774 45.7888 47.4832V44.5221H34.9332C34.9256 44.5221 34.9206 44.5196 34.913 44.5171C33.8991 44.8223 32.8271 44.9912 31.7123 44.9912C28.6628 44.9912 25.9009 43.7553 23.9006 41.7552C21.9002 39.755 20.6645 36.9931 20.6645 33.9434C20.6645 30.8915 21.9004 28.1321 23.9006 26.1317C25.9007 24.1313 28.6626 22.8956 31.7123 22.8956C32.8195 22.8956 33.8865 23.0621 34.8954 23.3673H45.7865V20.4062C44.8432 20.212 44.1319 19.3745 44.1319 18.3758C44.1319 17.2332 45.0626 16.3025 46.2052 16.3025C47.3477 16.3025 48.2785 17.2332 48.2785 18.3758C48.2785 19.3746 47.5671 20.212 46.6238 20.4062V23.7886C46.6238 24.0206 46.4372 24.2073 46.2051 24.2073H36.9257C37.8842 24.7218 38.7594 25.3701 39.5211 26.1343C40.3081 26.9213 40.9715 27.8318 41.4936 28.8256H50.917V25.8645C49.9737 25.6703 49.2624 24.8328 49.2624 23.8341C49.2624 22.6915 50.1931 21.7608 51.3356 21.7608C52.4782 21.7608 53.4089 22.6915 53.4089 23.8341C53.4089 24.8329 52.6976 25.6703 51.7543 25.8645V29.2469C51.7543 29.4789 51.5677 29.6656 51.3356 29.6656H41.8974C42.3993 30.8586 42.6869 32.1626 42.7373 33.5272H54.9172C55.1114 32.5839 55.9488 31.8726 56.9476 31.8726C58.0902 31.8726 59.0209 32.8033 59.0209 33.9459L59.0232 33.9435ZM50.1047 23.8292C50.1047 23.9226 50.1174 24.0134 50.1375 24.1016C50.1199 24.0134 50.1098 23.9226 50.1098 23.8292C50.1098 23.7359 50.1199 23.6451 50.1375 23.5568C50.1174 23.6451 50.1047 23.7359 50.1047 23.8292ZM44.9744 18.3736C44.9744 18.4669 44.987 18.5577 45.0072 18.646C44.9896 18.5577 44.9795 18.4669 44.9795 18.3736C44.9795 18.2802 44.9896 18.1894 45.0072 18.1011C44.987 18.1894 44.9744 18.2802 44.9744 18.3736ZM44.9744 49.5139C44.9744 49.6072 44.987 49.698 45.0072 49.7863C44.9896 49.698 44.9795 49.6072 44.9795 49.5139C44.9795 49.4206 44.9896 49.3298 45.0072 49.2415C44.987 49.3298 44.9744 49.4206 44.9744 49.5139ZM38.5025 33.9441C38.5025 32.07 37.7433 30.3725 36.515 29.1442C35.2867 27.9158 33.5892 27.1566 31.7151 27.1566C29.8411 27.1566 28.1436 27.9158 26.9152 29.1442C25.6868 30.3725 24.9277 32.07 24.9277 33.9441C24.9277 35.8181 25.6869 37.5156 26.9152 38.744C28.1435 39.9723 29.841 40.7315 31.7151 40.7315C33.5891 40.7315 35.2866 39.9723 36.515 38.744C37.7433 37.5156 38.5025 35.8181 38.5025 33.9441ZM50.1052 44.0584C50.1052 44.1517 50.1178 44.2425 50.138 44.3308C50.1203 44.2425 50.1102 44.1517 50.1102 44.0584C50.1102 43.965 50.1203 43.8742 50.138 43.786C50.1178 43.8742 50.1052 43.965 50.1052 44.0584ZM55.7147 33.9466C55.7147 34.04 55.7274 34.1308 55.7475 34.219C55.7299 34.1308 55.7198 34.04 55.7198 33.9466C55.7198 33.8533 55.7299 33.7625 55.7475 33.6742C55.7274 33.7625 55.7147 33.8533 55.7147 33.9466ZM43.6001 55.3963C43.6001 56.5388 42.6693 57.4696 41.5268 57.4696C40.3842 57.4696 39.4535 56.5388 39.4535 55.3963C39.4535 54.3974 40.1648 53.56 41.1081 53.3659V51.1992H35.6474V57.0005C35.6474 57.3965 35.4859 57.7572 35.2236 58.0194C34.9613 58.2817 34.6006 58.4432 34.2046 58.4432H29.2232C28.8272 58.4432 28.4665 58.2818 28.2042 58.0194C27.9419 57.7571 27.7804 57.3964 27.7804 57.0005V53.4869C27.7804 53.27 27.619 53.0934 27.4122 53.0657C26.3125 52.8185 25.2455 52.478 24.219 52.0543C23.1748 51.6204 22.1784 51.1034 21.2402 50.5081C21.0737 50.3795 20.8341 50.3921 20.6802 50.5435L18.1932 53.0304C17.9132 53.3104 17.5425 53.4517 17.1717 53.4517C16.801 53.4517 16.4302 53.3104 16.1502 53.0304L12.6266 49.5068C12.3466 49.2269 12.2054 48.8561 12.2054 48.4853C12.2054 48.1146 12.3466 47.7438 12.6266 47.4638L15.1136 44.9768C15.2675 44.823 15.2776 44.5834 15.1489 44.4169C14.5537 43.4786 14.0366 42.4823 13.6028 41.4381C13.1765 40.4115 12.836 39.3446 12.5913 38.2449C12.5636 38.0355 12.387 37.8766 12.1701 37.8766H8.6566C8.2606 37.8766 7.8999 37.7152 7.63761 37.4529C7.37533 37.1906 7.21387 36.8299 7.21387 36.4339V31.4524C7.21387 31.0564 7.37529 30.6957 7.63761 30.4334C7.89993 30.1711 8.26061 30.0097 8.6566 30.0097H12.1701C12.387 30.0097 12.5636 29.8483 12.5913 29.6414C12.8385 28.5417 13.179 27.4748 13.6028 26.4482C14.0366 25.404 14.5537 24.4077 15.1489 23.4694C15.2776 23.3029 15.2649 23.0633 15.1136 22.9095L12.6266 20.4225C12.3466 20.1425 12.2054 19.7717 12.2054 19.401H12.2029C12.2029 19.0327 12.3441 18.662 12.6241 18.3795L16.1477 14.8559C16.4277 14.5759 16.7984 14.4346 17.1692 14.4346C17.54 14.4346 17.9107 14.5759 18.1907 14.8559L20.6777 17.3429C20.8315 17.4967 21.0712 17.5068 21.2376 17.3782C22.1759 16.7829 23.1722 16.2658 24.2165 15.832C25.243 15.4058 26.31 15.0653 27.4097 14.8206C27.619 14.7929 27.7779 14.6163 27.7779 14.3994V10.8858C27.7779 10.4898 27.9393 10.1291 28.2017 9.86686C28.464 9.60457 28.8247 9.44312 29.2206 9.44312H34.2021C34.5981 9.44312 34.9588 9.60454 35.2211 9.86686C35.4834 10.1292 35.6448 10.4899 35.6448 10.8858V16.6871H41.1056V14.5204C40.1623 14.3262 39.451 13.4888 39.451 12.49C39.451 11.3475 40.3817 10.4167 41.5242 10.4167C42.6668 10.4167 43.5975 11.3475 43.5975 12.49C43.5975 13.4889 42.8862 14.3263 41.9429 14.5204V17.1058C41.9429 17.3378 41.7563 17.5245 41.5242 17.5245H35.6448V22.7077C34.4139 22.2764 33.0897 22.0419 31.71 22.0419C28.426 22.0419 25.4497 23.3737 23.2984 25.5277C21.1444 27.6817 19.8126 30.6554 19.8126 33.9392C19.8126 37.2232 21.1444 40.1995 23.2984 42.3508C25.4524 44.5048 28.4262 45.8366 31.71 45.8366C33.0896 45.8366 34.4139 45.602 35.6448 45.1707V50.354H41.5242C41.7563 50.354 41.9429 50.5406 41.9429 50.7727V53.358C42.8862 53.5522 43.5975 54.3897 43.5975 55.3884L43.6001 55.3963ZM40.2908 12.4951C40.2908 12.5884 40.3034 12.6792 40.3236 12.7675C40.306 12.6792 40.2959 12.5884 40.2959 12.4951C40.2959 12.4017 40.306 12.3109 40.3236 12.2227C40.3034 12.3109 40.2908 12.4017 40.2908 12.4951ZM40.2908 55.3963C40.2908 55.4896 40.3034 55.5804 40.3236 55.6687C40.306 55.5804 40.2959 55.4896 40.2959 55.3963C40.2959 55.303 40.306 55.2121 40.3236 55.1239C40.3034 55.2121 40.2908 55.3029 40.2908 55.3963Z" fill="#00BEB4"/>
</svg>
