<svg width="27" height="26" viewBox="0 0 27 26" fill="none" xmlns="http://www.w3.org/2000/svg">
<path fill-rule="evenodd" clip-rule="evenodd" d="M1.46761 3.84932C0.699219 5.35738 0.699219 7.33154 0.699219 11.2799V14.5698C0.699219 18.5181 0.699219 20.4923 1.46761 22.0003C2.14351 23.3269 3.22201 24.4054 4.54854 25.0812C6.0566 25.8497 8.03076 25.8497 11.9791 25.8497H15.269C19.2173 25.8497 21.1915 25.8497 22.6995 25.0812C24.0261 24.4054 25.1046 23.3269 25.7805 22.0003C26.5489 20.4923 26.5489 18.5181 26.5489 14.5698V11.2799C26.5489 7.33154 26.5489 5.35738 25.7805 3.84932C25.1046 2.52279 24.0261 1.44429 22.6995 0.768393C21.1915 0 19.2173 0 15.269 0H11.9791C8.03076 0 6.0566 0 4.54854 0.768393C3.22201 1.44429 2.14351 2.52279 1.46761 3.84932ZM15.269 2.34997H11.9791C9.96614 2.34997 8.59776 2.3518 7.54008 2.43821C6.5098 2.52239 5.98294 2.67496 5.6154 2.86223C4.73105 3.31284 4.01205 4.03183 3.56145 4.91618C3.37418 5.28372 3.22161 5.81058 3.13743 6.84086C3.05102 7.89854 3.04919 9.26692 3.04919 11.2799V14.5698C3.04919 16.5828 3.05102 17.9511 3.13743 19.0088C3.22161 20.0391 3.37418 20.566 3.56145 20.9335C4.01205 21.8178 4.73105 22.5368 5.6154 22.9874C5.98294 23.1747 6.5098 23.3273 7.54008 23.4115C8.59776 23.4978 9.96614 23.4997 11.9791 23.4997H15.269C17.282 23.4997 18.6503 23.4978 19.708 23.4115C20.7384 23.3273 21.2652 23.1747 21.6328 22.9874C22.517 22.5368 23.236 21.8178 23.6866 20.9335C23.8739 20.566 24.0266 20.0391 24.1107 19.0088C24.197 17.9511 24.1989 16.5828 24.1989 14.5698V11.2799C24.1989 9.26692 24.197 7.89854 24.1107 6.84086C24.0266 5.81058 23.8739 5.28372 23.6866 4.91618C23.236 4.03183 22.517 3.31284 21.6328 2.86223C21.2652 2.67496 20.7384 2.52239 19.708 2.43821C18.6503 2.3518 17.282 2.34997 15.269 2.34997Z" fill="#00BEB4"/>
<path fill-rule="evenodd" clip-rule="evenodd" d="M14.9852 19.2026V13.2201H16.8014L17.0981 10.5612H14.9852V9.26621C14.9852 8.58154 15.0027 7.90236 15.9594 7.90236H16.9284V6.00135C16.9284 5.97277 16.0961 5.9082 15.254 5.9082C13.4953 5.9082 12.3942 7.00977 12.3942 9.03252V10.5612H10.4509V13.2201H12.3942V19.2026H14.9852Z" fill="#00BEB4"/>
</svg>
