<svg width="27" height="26" viewBox="0 0 27 26" fill="none" xmlns="http://www.w3.org/2000/svg">
<path fill-rule="evenodd" clip-rule="evenodd" d="M1.618 3.84932C0.849609 5.35738 0.849609 7.33154 0.849609 11.2799V14.5698C0.849609 18.5181 0.849609 20.4923 1.618 22.0003C2.2939 23.3269 3.3724 24.4054 4.69893 25.0812C6.20699 25.8497 8.18115 25.8497 12.1295 25.8497H15.4194C19.3677 25.8497 21.3419 25.8497 22.8499 25.0812C24.1765 24.4054 25.255 23.3269 25.9308 22.0003C26.6993 20.4923 26.6993 18.5181 26.6993 14.5698V11.2799C26.6993 7.33154 26.6993 5.35738 25.9308 3.84932C25.255 2.52279 24.1765 1.44429 22.8499 0.768393C21.3419 0 19.3677 0 15.4194 0H12.1295C8.18115 0 6.20699 0 4.69893 0.768393C3.3724 1.44429 2.2939 2.52279 1.618 3.84932ZM15.4194 2.34997H12.1295C10.1165 2.34997 8.74815 2.3518 7.69047 2.43821C6.66019 2.52239 6.13333 2.67496 5.76579 2.86223C4.88144 3.31284 4.16244 4.03183 3.71184 4.91618C3.52457 5.28372 3.372 5.81058 3.28782 6.84086C3.20141 7.89854 3.19958 9.26692 3.19958 11.2799V14.5698C3.19958 16.5828 3.20141 17.9511 3.28782 19.0088C3.372 20.0391 3.52457 20.566 3.71184 20.9335C4.16244 21.8178 4.88144 22.5368 5.76579 22.9874C6.13333 23.1747 6.66019 23.3273 7.69047 23.4115C8.74815 23.4978 10.1165 23.4997 12.1295 23.4997H15.4194C17.4324 23.4997 18.8007 23.4978 19.8584 23.4115C20.8887 23.3273 21.4156 23.1747 21.7831 22.9874C22.6674 22.5368 23.3864 21.8178 23.837 20.9335C24.0243 20.566 24.1769 20.0391 24.2611 19.0088C24.3474 17.9511 24.3493 16.5828 24.3493 14.5698V11.2799C24.3493 9.26692 24.3474 7.89854 24.2611 6.84086C24.1769 5.81058 24.0243 5.28372 23.837 4.91618C23.3864 4.03183 22.6674 3.31284 21.7831 2.86223C21.4156 2.67496 20.8887 2.52239 19.8584 2.43821C18.8007 2.3518 17.4324 2.34997 15.4194 2.34997Z" fill="#00BEB4"/>
<path d="M14.3131 5.91934C15.0425 5.9082 15.7665 5.914 16.4901 5.9082C16.5141 6.81313 16.8813 7.6276 17.4654 8.23088L17.4645 8.22999C18.0932 8.79629 18.9112 9.16343 19.813 9.22581L19.8255 9.2267V11.4705C18.9736 11.4491 18.1725 11.2526 17.4503 10.9149L17.4868 10.9301C17.1375 10.7621 16.8421 10.5896 16.5614 10.3972L16.5845 10.4123C16.5792 12.0381 16.5899 13.664 16.5734 15.284C16.5275 16.1096 16.253 16.8626 15.8128 17.4913L15.8218 17.4775C15.0857 18.5317 13.8934 19.2236 12.5376 19.2646H12.5313C12.4765 19.2673 12.4119 19.2686 12.3469 19.2686C11.5761 19.2686 10.8556 19.0539 10.2416 18.6809L10.2594 18.6912C9.14199 18.0188 8.37118 16.8684 8.22861 15.5304L8.22682 15.5121C8.21568 15.2337 8.21034 14.9552 8.22148 14.6825C8.4398 12.5532 10.2238 10.906 12.3923 10.906C12.636 10.906 12.8749 10.9269 13.107 10.9666L13.082 10.963C13.0932 11.7869 13.0598 12.6111 13.0598 13.435C12.8713 13.3668 12.6539 13.3271 12.4271 13.3271C11.5948 13.3271 10.8868 13.8591 10.6248 14.6019L10.6208 14.6152C10.5615 14.8055 10.5272 15.0243 10.5272 15.2506C10.5272 15.3424 10.533 15.4333 10.5437 15.5224L10.5428 15.5117C10.6907 16.4233 11.4722 17.1112 12.4146 17.1112C12.4418 17.1112 12.4685 17.1108 12.4952 17.1095H12.4912C13.1431 17.0898 13.7089 16.7392 14.0288 16.221L14.0333 16.213C14.1523 16.0473 14.2338 15.8468 14.261 15.6289L14.2614 15.6226C14.3171 14.6259 14.2948 13.635 14.3002 12.6383C14.3055 10.3945 14.2948 8.15603 14.3113 5.91801L14.3131 5.91934Z" fill="#00BEB4"/>
</svg>
