<svg width="27" height="28" viewBox="0 0 27 28" fill="none" xmlns="http://www.w3.org/2000/svg">
<path d="M0.78095 24.0487C0.0294828 24.8002 0.0294828 26.0185 0.78095 26.77C1.53242 27.5215 2.75079 27.5215 3.50225 26.77L0.78095 24.0487ZM26.6758 2.79938C26.6758 1.73664 25.8143 0.875126 24.7516 0.875126H7.43329C6.37056 0.875126 5.50904 1.73664 5.50904 2.79938C5.50904 3.86211 6.37056 4.72363 7.43329 4.72363H22.8273V20.1176C22.8273 21.1804 23.6888 22.0419 24.7516 22.0419C25.8143 22.0419 26.6758 21.1804 26.6758 20.1176V2.79938ZM2.1416 25.4093L3.50225 26.77L26.1122 4.16003L24.7516 2.79938L23.3909 1.43873L0.78095 24.0487L2.1416 25.4093Z" fill="white"/>
</svg>
