<svg width="180" height="32" viewBox="0 0 180 32" fill="none" xmlns="http://www.w3.org/2000/svg">
<rect width="180" height="32" fill="transparent"/>
<g id="Group">
<path id="Vector" d="M42.5627 29.1334C41.9247 30.2021 40.9936 30.9249 39.8314 31.3496C39.5556 31.449 39.259 31.5312 38.9417 31.5141C38.4382 31.4832 37.9279 31.4798 37.4244 31.5106C36.1588 31.5928 35.1621 31.0311 34.2655 30.2364C33.5931 29.6404 33.1379 28.8868 32.8861 28.0305C32.7585 27.5989 32.7033 27.1433 32.7068 26.6809C32.7137 23.8961 32.7447 21.1112 32.6965 18.3264C32.6758 17.0042 32.1585 15.8636 30.8963 15.2299C30.2515 14.9045 29.5652 14.7914 28.8203 14.9559C28.2168 15.0894 27.6927 15.3224 27.2271 15.7026C26.7443 16.0965 26.4477 16.6172 26.2201 17.1858C26.0305 17.6516 26.0374 18.1414 26.0374 18.6278C26.0374 21.2277 26.0477 23.8275 26.0339 26.424C26.027 27.7359 25.6684 28.9553 24.7614 29.9384C24.2303 30.5139 23.5855 30.9626 22.8337 31.2674C22.2405 31.5072 21.6543 31.5038 21.0474 31.5072C20.706 31.5072 20.3646 31.4935 20.0266 31.5106C18.9851 31.5654 18.1334 31.1167 17.3609 30.5036C16.7022 29.9829 16.1712 29.3424 15.8608 28.5511C15.6815 28.0921 15.5125 27.6297 15.5125 27.1262C15.5125 21.6764 15.4884 16.2267 15.5297 10.7769C15.5401 9.39306 16.2505 8.28667 17.3678 7.44746C17.9954 6.97476 18.7058 6.64249 19.461 6.52261C20.0335 6.43355 20.6232 6.25885 21.2336 6.43697C21.5784 6.53631 21.9543 6.49863 22.3199 6.58769C23.4717 6.87199 24.3752 7.49541 25.0752 8.43053C25.5511 9.06765 25.8477 9.79041 26.0753 10.544C26.1581 10.8283 26.2615 10.6022 26.3201 10.5371C26.865 9.92742 27.4202 9.32798 28.0548 8.8039C29.0134 8.00579 30.0411 7.32414 31.217 6.87542C32.0171 6.57056 32.8413 6.40614 33.6931 6.29653C34.5345 6.1835 35.3587 6.27256 36.1657 6.38217C37.5175 6.57056 38.7934 7.03299 39.9176 7.85165C40.9591 8.60865 41.7385 9.57461 42.3006 10.7221C42.3557 10.8351 42.4592 10.9311 42.4385 11.0715C42.4247 11.1948 42.4109 11.3215 42.5661 11.3763L42.5696 11.3969C42.5799 11.6812 42.642 11.9484 42.8351 12.171C42.8385 12.2156 42.8454 12.2601 42.8489 12.3046C42.842 12.469 42.7592 12.654 42.973 12.7602C42.9799 12.8047 42.9834 12.8458 42.9903 12.8904C42.9972 13.1438 42.8558 13.4213 43.1248 13.6268C43.1282 13.7159 43.1351 13.8049 43.1386 13.894C43.073 13.9831 43.1006 14.0824 43.1006 14.1783C43.1006 18.46 43.1041 22.7417 43.111 27.0234C43.111 27.205 43.0592 27.3934 43.1351 27.5715C43.1317 27.616 43.1282 27.664 43.1213 27.7085C42.8661 27.8249 42.9937 28.0921 42.9041 28.2771C42.7765 28.5477 42.6178 28.8217 42.5627 29.1334Z" fill="white"/>
<path id="Vector_2" d="M73.6096 0.0486521C74.258 0.0486521 74.9063 0.0589281 75.5546 0.0452266C76.3098 0.0315252 77.0409 0.147988 77.7823 0.285002C78.5617 0.428868 79.3307 0.603562 80.0722 0.867315C81.1964 1.26466 82.3068 1.69625 83.2034 2.52177C83.6379 2.91911 83.8448 3.42949 84.0104 3.97754C84.1138 4.32008 84.1414 4.65919 84.1311 5.00515C84.0897 6.30679 83.5172 7.28302 82.2999 7.81053C81.6964 8.07086 81.0584 8.08798 80.4032 7.91329C79.4032 7.64611 78.4824 7.14601 77.4616 6.94391C77.034 6.85828 76.6064 6.77607 76.1753 6.71099C75.0822 6.54657 73.9855 6.40613 72.8855 6.49519C71.7302 6.58767 70.5681 6.72811 69.5887 7.44744C68.7438 8.06743 68.3231 8.89294 68.5024 9.93425C68.6196 10.6091 69.1197 11.0543 69.7025 11.3592C70.3887 11.7223 71.144 11.8936 71.8992 12.0717C72.6613 12.2498 73.4303 12.3971 74.1924 12.5821C74.6821 12.7019 75.1822 12.7876 75.6788 12.8972C76.4788 13.0719 77.2823 13.2226 78.0755 13.4384C78.8238 13.6405 79.5618 13.8529 80.2756 14.1509C82.0861 14.9045 83.6483 15.9697 84.6587 17.6927C85.1587 18.549 85.4312 19.491 85.5553 20.4707C85.6588 21.2962 85.6484 22.1251 85.5484 22.9472C85.4657 23.6563 85.2691 24.3413 85.0242 25.0161C84.6966 25.9239 84.1966 26.7185 83.5931 27.4584C82.831 28.397 81.8826 29.1129 80.8308 29.7055C79.7928 30.2912 78.6824 30.7022 77.5237 30.99C76.7788 31.1749 76.034 31.312 75.2684 31.401C73.451 31.61 71.6302 31.5003 69.8128 31.4627C69.1473 31.449 68.4748 31.3325 67.8161 31.216C66.7161 31.0208 65.6263 30.7776 64.5573 30.4351C63.671 30.1508 62.8089 29.8185 61.9709 29.4212C61.1122 29.0135 60.5018 28.3661 60.2122 27.4824C60.0225 26.9069 59.9983 26.3041 60.1432 25.6704C60.3294 24.8586 60.6881 24.1906 61.3019 23.6494C61.7743 23.2315 62.3261 23.0191 62.9744 22.9678C63.8503 22.8993 64.609 23.2178 65.3711 23.5672C66.047 23.8755 66.7574 24.0673 67.4713 24.2728C68.2713 24.5023 69.0852 24.6565 69.9025 24.7901C70.906 24.9545 71.9233 24.975 72.9441 24.9648C73.789 24.9579 74.6235 24.8791 75.4374 24.6702C76.4167 24.4201 77.2651 23.9234 77.6065 22.9232C77.8065 22.3272 77.7341 21.6764 77.2927 21.1489C76.8823 20.6556 76.3271 20.3885 75.7305 20.1624C75.1442 19.9397 74.5373 19.8027 73.9373 19.6794C73.1579 19.5184 72.382 19.3266 71.5957 19.1862C71.0474 19.0903 70.5129 18.9019 69.9611 18.8128C69.2611 18.6998 68.5679 18.5456 67.8851 18.3675C66.254 17.9462 64.7194 17.3262 63.3848 16.2712C62.3227 15.4285 61.5295 14.3838 61.0639 13.1267C60.6294 11.9484 60.4501 10.7084 60.5294 9.45128C60.5846 8.60179 60.7329 7.76942 61.0019 6.94734C61.5088 5.39565 62.3951 4.11113 63.6089 3.0527C64.647 2.14497 65.8367 1.46675 67.1402 0.983777C67.9092 0.699472 68.699 0.490524 69.4921 0.285002C70.6922 -0.0232804 71.9026 0.076055 73.1131 0.0486521C73.282 0.0452267 73.4441 0.0486521 73.6096 0.0486521Z" fill="white"/>
<path id="Vector_3" d="M172.303 28.4621C172.089 28.5922 172.006 28.8251 171.854 28.9998C171.072 29.8973 170.106 30.5207 169.009 30.9934C167.475 31.6511 165.871 31.5689 164.288 31.4695C163.037 31.3942 161.864 30.9009 160.802 30.209C159.254 29.2019 158.164 27.8215 157.422 26.1465C157.005 25.208 156.726 24.2352 156.543 23.2212C156.295 21.8408 156.233 20.4536 156.333 19.0697C156.419 17.8674 156.588 16.6617 157.016 15.5142C157.364 14.5825 157.805 13.6987 158.371 12.8698C158.847 12.1779 159.44 11.6058 160.064 11.0646C160.705 10.5063 161.461 10.1227 162.254 9.79382C163.561 9.24919 164.923 9.1019 166.313 9.16013C167.006 9.19096 167.689 9.32112 168.365 9.52664C169.323 9.8178 170.182 10.2665 170.975 10.8728C171.413 11.2085 171.737 11.6504 172.141 12.0272C172.261 11.9244 172.206 11.7942 172.206 11.688C172.21 9.00256 172.217 6.31708 172.206 3.62817C172.203 2.81293 172.392 2.04565 172.837 1.38113C173.251 0.767987 173.858 0.367219 174.593 0.165123C175.448 -0.0678019 176.324 -0.0129961 177.169 0.0794888C178.355 0.206227 179.231 0.891301 179.707 2.01139C179.917 2.50465 180.003 3.01845 180 3.55623C179.993 11.6709 179.993 19.7822 179.996 27.8969C179.996 29.1129 179.593 30.1336 178.583 30.8632C178.179 31.1544 177.714 31.288 177.224 31.3942C176.734 31.5038 176.248 31.5243 175.762 31.4867C174.858 31.4147 174.003 31.1921 173.324 30.5344C172.817 30.0446 172.544 29.4451 172.389 28.7772C172.365 28.6744 172.375 28.5614 172.303 28.4621ZM164.216 20.3474C164.182 21.0496 164.23 21.7209 164.364 22.382C164.464 22.8719 164.578 23.3754 164.826 23.8001C165.561 25.0675 166.633 25.8108 168.168 25.8279C169.399 25.8417 170.413 25.434 171.189 24.4818C171.844 23.6768 172.096 22.7109 172.199 21.7141C172.32 20.5323 172.323 19.3403 172.068 18.1688C171.968 17.7064 171.848 17.2406 171.589 16.8295C170.958 15.8259 170.123 15.1579 168.899 14.949C168.082 14.8086 167.333 14.9182 166.613 15.2333C165.251 15.8259 164.661 17.0076 164.371 18.3607C164.223 19.0218 164.157 19.6965 164.216 20.3474Z" fill="white"/>
<path id="Vector_4" d="M144.704 28.5032C144.314 29.0101 143.963 29.476 143.511 29.8493C142.739 30.4933 141.901 31.0003 140.907 31.2674C140.29 31.4319 139.68 31.5209 139.045 31.5072C138.083 31.4867 137.114 31.5757 136.162 31.3668C134.49 31.0003 133.072 30.2398 132.045 28.8251C131.4 27.9346 131.014 26.9515 130.765 25.8965C130.648 25.3998 130.558 24.9031 130.5 24.3996C130.231 22.108 130.424 19.8096 130.379 17.5146C130.348 15.867 130.327 14.216 130.4 12.5684C130.458 11.2599 131.034 10.1775 132.29 9.59858C132.862 9.33483 133.496 9.24577 134.134 9.23892C135.035 9.23207 135.91 9.32455 136.693 9.82123C137.314 10.2117 137.742 10.7529 137.973 11.4517C138.231 12.2395 138.238 13.0513 138.238 13.8666C138.235 16.8261 138.238 19.7856 138.235 22.7451C138.235 23.3822 138.373 23.9851 138.687 24.54C138.976 25.0538 139.424 25.3827 139.994 25.5094C141.549 25.8554 142.835 25.4238 143.773 24.1221C144.308 23.3788 144.487 22.5156 144.487 21.6148C144.49 18.7443 144.477 15.8704 144.494 13C144.501 12.0066 144.718 11.0612 145.435 10.3008C145.877 9.83493 146.422 9.57118 147.035 9.40333C147.78 9.19781 148.539 9.20124 149.287 9.29372C150.567 9.45129 151.553 10.0781 152.043 11.2941C152.256 11.8251 152.353 12.4074 152.35 12.9965C152.343 17.9017 152.35 22.8034 152.343 27.7085C152.343 28.6573 152.167 29.565 151.553 30.3392C151.18 30.8084 150.694 31.0825 150.122 31.2674C149.487 31.4695 148.846 31.5346 148.194 31.4935C147.053 31.425 146.042 31.0516 145.335 30.1062C145.004 29.6541 144.894 29.0992 144.704 28.5032Z" fill="white"/>
<path id="Vector_5" d="M102.705 28.3354C102.346 28.9074 101.987 29.4452 101.515 29.911C100.86 30.5584 100.084 30.9763 99.208 31.2606C97.9113 31.6785 96.5699 31.586 95.2732 31.4559C93.3421 31.2606 91.6247 30.466 90.2556 29.0307C89.4142 28.147 88.859 27.1194 88.6176 25.9205C88.4003 24.8449 88.4141 23.7659 88.6831 22.7109C89.0176 21.399 89.8073 20.4159 91.0247 19.7685C91.6971 19.4123 92.4041 19.1451 93.1282 18.9567C93.6869 18.8094 94.2766 18.7341 94.8525 18.6347C96.0664 18.4258 97.2906 18.3607 98.5148 18.2956C99.6563 18.234 100.801 18.2614 101.943 18.2545C102.608 18.2511 102.753 18.0901 102.574 17.4461C102.519 17.244 102.494 17.0488 102.474 16.8467C102.391 16.0178 101.932 15.4697 101.184 15.1443C100.377 14.7949 99.5183 14.8429 98.6666 14.8429C97.2423 14.8394 95.8767 15.1717 94.5318 15.5896C94.0938 15.7266 93.6697 15.9184 93.2248 16.0383C91.973 16.3774 90.8419 15.9595 90.2108 14.7675C89.8763 14.1407 89.8142 13.4419 89.966 12.7842C90.1832 11.8285 90.7833 11.1058 91.6902 10.6673C92.3041 10.3693 92.9593 10.1775 93.6041 9.97542C94.2904 9.75963 94.9939 9.58151 95.7008 9.45134C96.3354 9.33488 96.9871 9.32118 97.6286 9.23555C98.6907 9.09511 99.7563 9.11908 100.818 9.19102C101.608 9.24582 102.398 9.35886 103.181 9.52328C104.357 9.7699 105.47 10.1467 106.471 10.8112C107.553 11.5305 108.409 12.4588 108.967 13.6474C109.302 14.353 109.54 15.0758 109.688 15.8465C109.836 16.6035 109.947 17.3537 109.947 18.1244C109.943 21.5086 109.971 24.8963 109.919 28.2806C109.902 29.4007 109.45 30.3906 108.416 31.014C108.095 31.2093 107.74 31.3052 107.378 31.3977C106.902 31.521 106.422 31.5381 105.943 31.497C104.953 31.4079 104.046 31.1202 103.415 30.281C103.043 29.7877 102.812 29.2397 102.739 28.6265C102.725 28.5238 102.715 28.4313 102.705 28.3354ZM98.5735 26.4823C99.0769 26.4651 99.4287 26.448 99.7873 26.3555C100.801 26.0986 101.536 25.5026 102.06 24.636C102.512 23.8961 102.608 23.0672 102.594 22.2177C102.591 22.043 102.525 21.9848 102.363 21.9916C100.839 22.043 99.2976 21.834 97.7941 22.2691C97.2975 22.4129 96.8009 22.5842 96.4388 22.937C95.7146 23.6461 95.8353 24.9751 96.4768 25.667C97.0837 26.3213 97.8665 26.4994 98.5735 26.4823Z" fill="white"/>
<path id="Vector_6" d="M114.764 14.079C114.764 10.2562 114.74 7.09806 114.778 3.9433C114.792 2.77525 114.995 1.62433 115.985 0.798813C116.526 0.346665 117.147 0.0829119 117.854 0.0520836C118.358 0.0315314 118.864 0.0589342 119.371 0.0452327C120.637 0.0144045 122.016 0.959805 122.365 2.16896C122.534 2.75127 122.647 3.31988 122.647 3.91932C122.651 10.1227 122.644 16.326 122.654 22.5293C122.654 23.2898 122.81 24.0262 123.31 24.6531C123.758 25.2182 124.886 25.5402 125.561 25.2696C126.555 24.8757 127.541 25.434 127.669 26.4925C127.772 27.3557 127.855 28.2223 127.696 29.0992C127.489 30.2467 126.827 30.9763 125.686 31.2606C124.237 31.6237 122.765 31.5723 121.316 31.4661C119.775 31.3496 118.326 30.8256 117.171 29.7226C116.447 29.0341 115.919 28.212 115.568 27.2769C115.271 26.4959 115.078 25.6978 114.964 24.8689C114.902 24.4167 114.892 23.968 114.861 23.5158C114.626 20.1487 114.854 16.7816 114.764 14.079Z" fill="white"/>
<path id="Vector_7" d="M10.7466 15.9971C10.7535 16.3123 10.7604 16.6308 10.7604 16.9459C10.7604 19.9157 10.7639 22.8855 10.7604 25.8519C10.7604 26.4616 10.7328 27.0747 10.5466 27.6571C10.3121 28.3832 9.96726 29.0546 9.49136 29.6678C8.88787 30.4419 8.10851 30.966 7.22224 31.3393C6.9636 31.4489 6.67738 31.5277 6.37046 31.514C5.83249 31.4866 5.29107 31.4763 4.75655 31.514C3.79786 31.5825 3.0116 31.1646 2.28052 30.6474C1.33218 29.976 0.701097 29.0375 0.311414 27.9653C0.118297 27.4378 -0.00239997 26.8761 0.00104855 26.2972C0.0113941 23.002 0.00794574 19.7034 0.00794574 16.4082C0.00794574 16.2232 0.0148423 16.0382 0.0182909 15.8533C0.0976067 15.8601 0.128643 15.9115 0.13554 15.9868C0.207959 16.7987 0.628678 17.4666 1.09423 18.0969C1.56323 18.7306 2.14947 19.2375 2.85642 19.604C3.50129 19.9363 4.1841 20.1692 4.91174 20.1726C5.49453 20.1761 6.07733 20.2411 6.66358 20.0665C7.03947 19.9534 7.41881 19.8438 7.76711 19.6691C8.60165 19.2546 9.31549 18.686 9.82587 17.8982C10.1638 17.3775 10.4983 16.85 10.5742 16.2129C10.5845 16.1033 10.619 16.004 10.7466 15.9971Z" fill="white"/>
<path id="Vector_8" opacity="0.8" d="M0.0148492 14.4697C0.0114007 13.7263 0.00450409 12.9865 0.00450409 12.2432C0.00450409 9.70154 -0.00928982 7.1565 0.0114013 4.61488C0.0182983 3.72086 0.36315 2.92617 0.859736 2.18287C1.3977 1.38133 2.115 0.799021 2.97713 0.398254C3.39095 0.206433 3.81856 0.0214633 4.30136 0.0420155C4.82898 0.0659931 5.3566 0.0728438 5.88423 0.0420155C7.3464 -0.047044 8.47406 0.603775 9.43275 1.61083C10.3225 2.54596 10.757 3.6729 10.7604 4.95399C10.7708 7.97859 10.7639 10.9998 10.7639 14.0244C10.7639 14.11 10.7846 14.199 10.7156 14.2744C10.6052 14.2402 10.5604 14.1614 10.5604 14.0518C10.5604 13.788 10.4225 13.5688 10.3397 13.329C10.2052 12.9282 9.95347 12.5994 9.72587 12.2466C9.3155 11.6197 8.75339 11.1813 8.143 10.784C7.6878 10.4894 7.18087 10.3078 6.66359 10.1879C6.17735 10.0783 5.67731 9.95845 5.17383 10.0235C4.71173 10.0852 4.24618 10.116 3.79442 10.2633C3.21852 10.4517 2.6771 10.7018 2.19086 11.058C1.59772 11.4896 1.11148 12.0239 0.756281 12.6679C0.473503 13.1817 0.145893 13.6852 0.132099 14.3052C0.132099 14.3874 0.111408 14.4525 0.0148492 14.4697Z" fill="white"/>
<path id="Vector_9" d="M0.0148926 14.4694C0.108003 14.4523 0.132143 14.3872 0.135591 14.3015C0.149385 13.6816 0.473545 13.1815 0.759772 12.6642C1.11497 12.0237 1.60121 11.4859 2.19436 11.0543C2.6806 10.7015 3.22201 10.4514 3.79792 10.2596C4.24967 10.1123 4.71522 10.0781 5.17732 10.0198C5.68081 9.95476 6.18429 10.0746 6.66708 10.1843C7.18436 10.3041 7.69129 10.4857 8.14649 10.7803C8.76033 11.1776 9.32244 11.6161 9.72936 12.2429C9.95697 12.5923 10.2087 12.9211 10.3432 13.3253C10.4225 13.5651 10.5605 13.7877 10.5639 14.0481C10.5639 14.1577 10.6087 14.2365 10.7191 14.2707C10.7191 14.4112 10.7225 14.5482 10.7225 14.6886C10.6949 15.1236 10.626 15.5621 10.7708 15.9903L10.757 16.004L10.7432 15.9937C10.6156 16.0005 10.5811 16.0999 10.5708 16.1992C10.4949 16.8397 10.1604 17.3638 9.82247 17.8845C9.31209 18.6723 8.59825 19.2409 7.76371 19.6554C7.41541 19.8301 7.03607 19.9363 6.66018 20.0527C6.07394 20.2309 5.49114 20.1623 4.90834 20.1589C4.17725 20.1555 3.4979 19.9226 2.85302 19.5903C2.14608 19.2272 1.55983 18.7168 1.09083 18.0831C0.621832 17.4495 0.204561 16.7849 0.132142 15.9731C0.125245 15.8978 0.097657 15.8498 0.0148926 15.8395C0.0148926 15.3874 0.0148926 14.9284 0.0148926 14.4694Z" fill="white"/>
<path id="Vector_10" d="M50.2046 21.7312C49.6425 21.7312 49.0839 21.7209 48.5218 21.7346C48.2735 21.7415 48.208 21.6593 48.2114 21.4161C48.2252 20.5323 48.1804 19.6452 48.2252 18.7614C48.2976 17.3159 48.8321 16.1033 50.2012 15.408C51.7496 14.6236 53.7221 14.9798 54.6325 16.648C55.0912 17.4872 55.174 18.388 54.8601 19.3334C54.498 20.4296 53.7635 21.1386 52.7117 21.536C52.391 21.6558 52.0462 21.7381 51.6875 21.7312C51.1944 21.7209 50.7012 21.7312 50.2046 21.7312Z" fill="white"/>
<path id="Vector_11" d="M10.7708 15.9972C10.626 15.569 10.6949 15.1306 10.7225 14.6955C10.8949 14.812 10.826 14.9935 10.826 15.1443C10.8225 15.4286 10.9156 15.7197 10.7708 15.9972Z" fill="white"/>
</g>
</svg>
