<svg width="34" height="34" viewBox="0 0 34 34" fill="none" xmlns="http://www.w3.org/2000/svg">
<circle cx="17" cy="17" r="17" fill="white"/>
<path fill-rule="evenodd" clip-rule="evenodd" d="M17.8151 7.8495H16.4328C16.2387 7.88899 16.0434 7.92422 15.848 7.95945C15.4204 8.03654 14.9929 8.11362 14.5794 8.23534C11.004 9.28862 8.5576 12.2684 8.19477 15.9752C8.01877 17.7663 8.38972 19.445 9.2494 21.0168C9.38343 21.2619 9.41728 21.4609 9.32251 21.7303C8.86085 23.0421 8.41951 24.3608 7.97816 25.6794C7.94223 25.7844 7.92611 25.8959 7.90997 26.0076C7.903 26.0559 7.89603 26.1041 7.88745 26.1519C8.30154 26.0169 8.71609 25.8833 9.13066 25.7498C10.1257 25.4291 11.1209 25.1085 12.11 24.7683C12.5595 24.6139 12.9305 24.6437 13.3691 24.8414C18.5231 27.1618 24.3405 24.4217 25.8162 18.9888C25.9102 18.6423 25.9691 18.2868 26.0279 17.9312C26.0546 17.77 26.0813 17.6086 26.1113 17.4481V16.0659C26.0667 15.8556 26.0293 15.6427 25.9919 15.4299C25.9101 14.9646 25.8283 14.4993 25.6713 14.0609C24.3838 10.4678 21.8373 8.40863 18.0425 7.91313C17.9901 7.90669 17.9389 7.88963 17.8877 7.87255C17.8635 7.8645 17.8394 7.85645 17.8151 7.8495ZM10.7523 23.7309C10.5266 23.8021 10.297 23.8745 10.0625 23.9491C10.1376 23.7263 10.2114 23.5097 10.2836 23.2976C10.5041 22.6499 10.7105 22.0439 10.8991 21.431C10.9465 21.2794 10.9181 21.0533 10.8328 20.9206C7.93967 16.4123 10.2926 10.6261 15.513 9.43608C19.6665 8.48975 23.9067 11.3396 24.5741 15.5269C25.2348 19.6724 22.4513 23.5254 18.3059 24.1779C16.5338 24.4568 14.8591 24.1278 13.3089 23.2207C13.0639 23.0772 12.8568 23.0461 12.5901 23.1368C11.99 23.3405 11.3863 23.5309 10.7523 23.7309Z" fill="#004569"/>
<path d="M12.6768 14.8053C12.7444 14.184 12.9597 13.6777 13.3022 13.1998C13.6582 12.7002 14.1497 12.6623 14.6749 12.7436C14.79 12.7611 14.9227 12.906 14.9768 13.0251C15.23 13.5775 15.5007 14.1271 15.6713 14.7065C15.7349 14.9218 15.6036 15.2562 15.4574 15.4606C14.9552 16.1564 14.9389 16.1429 15.4561 16.8563C16.1167 17.7674 16.9723 18.424 18.0106 18.8558C18.2827 18.9682 18.4709 18.933 18.6469 18.7056C18.8202 18.4808 19.0219 18.2764 19.183 18.0449C19.3441 17.8121 19.5363 17.7647 19.7759 17.8771C20.3391 18.141 20.9077 18.3942 21.4519 18.6907C21.5751 18.7584 21.6807 18.9926 21.6726 19.1442C21.6279 20.016 21.0891 20.6658 20.2092 20.8459C19.799 20.9298 19.3414 20.9434 18.9353 20.8527C16.2534 20.2529 14.4394 18.5377 13.1425 16.2106C12.9055 15.7855 12.827 15.2751 12.6768 14.8053Z" fill="#004569"/>
</svg>
