<svg width="52" height="52" viewBox="0 0 52 52" fill="none" xmlns="http://www.w3.org/2000/svg">
<circle cx="26.203" cy="25.794" r="25.7973" fill="white"/>
<path d="M36.3627 24.6835L24.4042 36.642C22.1181 38.9281 18.3569 38.8736 16.0035 36.5202C13.6501 34.1668 13.5956 30.4057 15.8817 28.1195L27.8402 16.161" stroke="#00BEB4" stroke-width="2.67835" stroke-linecap="round"/>
<path d="M15.5427 28.4585L33.0484 27.9977" stroke="#00BEB4" stroke-width="2.67835" stroke-linecap="round"/>
<path d="M29.3759 24.0948C29.8989 23.5718 29.8989 22.7239 29.3759 22.201C28.853 21.678 28.0051 21.678 27.4821 22.201C26.9591 22.7239 26.9591 23.5718 27.4821 24.0948C28.0051 24.6178 28.853 24.6178 29.3759 24.0948Z" fill="#00BEB4"/>
<path d="M32.5847 13.0138C33.1077 12.4908 33.1077 11.6429 32.5847 11.1199C32.0617 10.5969 31.2138 10.5969 30.6908 11.1199C30.1678 11.6429 30.1678 12.4908 30.6908 13.0138C31.2138 13.5367 32.0617 13.5367 32.5847 13.0138Z" fill="#00BEB4"/>
<path d="M42.5493 22.2118C43.0723 21.6888 43.0723 20.8409 42.5493 20.3179C42.0263 19.7949 41.1784 19.7949 40.6554 20.3179C40.1324 20.8409 40.1324 21.6888 40.6554 22.2118C41.1784 22.7347 42.0263 22.7347 42.5493 22.2118Z" fill="#00BEB4"/>
<path d="M37.9501 19.9123C38.4732 19.3893 38.4732 18.5414 37.9501 18.0185C37.4272 17.4955 36.5793 17.4955 36.0563 18.0185C35.5333 18.5414 35.5333 19.3893 36.0563 19.9123C36.5793 20.4353 37.4272 20.4353 37.9501 19.9123Z" fill="#00BEB4"/>
<path d="M39.4831 14.5467C40.0061 14.0237 40.0061 13.1758 39.4831 12.6529C38.9601 12.1299 38.1122 12.1299 37.5892 12.6529C37.0663 13.1758 37.0663 14.0237 37.5892 14.5467C38.1122 15.0697 38.9601 15.0697 39.4831 14.5467Z" fill="#00BEB4"/>
<path d="M25.5879 25.9888C26.1109 25.4658 26.1109 24.6178 25.5879 24.0949C25.0649 23.5719 24.217 23.5719 23.694 24.0949C23.171 24.6178 23.171 25.4658 23.694 25.9888C24.217 26.5118 25.0649 26.5118 25.5879 25.9888Z" fill="#00BEB4"/>
<path d="M25.4731 13.7936L38.7302 27.0508" stroke="#00BEB4" stroke-width="2.67835" stroke-linecap="round"/>
</svg>
